<svg xmlns="http://www.w3.org/2000/svg" viewBox="0 0 260 50" fill="none">
  <g transform="translate(2, 4)">
    <line x1="0" y1="18" x2="10" y2="18" stroke="#1B0F91" stroke-width="2.5" stroke-linecap="round"/>
    <line x1="2" y1="23" x2="8" y2="23" stroke="#1B0F91" stroke-width="2" stroke-linecap="round"/>
    <path d="M14 8 L14 34 M14 21 L26 21 M26 8 L26 34" stroke="#1B0F91" stroke-width="3.5" stroke-linecap="round" stroke-linejoin="round" fill="none"/>
    <path d="M32 34 L32 8 L40 22 L48 8 L48 34" stroke="#FF8C00" stroke-width="3.5" stroke-linecap="round" stroke-linejoin="round" fill="none"/>
    <path d="M6 4 Q30 -6 52 6 Q60 12 56 24 Q52 36 34 38 Q16 40 6 30" stroke="#1B0F91" stroke-width="2" fill="none" stroke-linecap="round"/>
    <path d="M10 36 Q30 46 54 34 Q60 28 56 18" stroke="#FF8C00" stroke-width="2" fill="none" stroke-linecap="round"/>
    <rect x="50" y="26" width="7" height="7" rx="1" stroke="#1B0F91" stroke-width="1.5" fill="none"/>
    <line x1="50" y1="29" x2="57" y2="29" stroke="#FF8C00" stroke-width="1.5"/>
  </g>
  <text x="72" y="22" font-family="Inter, Arial, sans-serif" font-weight="800" font-size="16" fill="#1B0F91" letter-spacing="1">PRO</text>
  <text x="72" y="40" font-family="Inter, Arial, sans-serif" font-weight="800" font-size="16" fill="#1B0F91" letter-spacing="1">DELIVERY</text>
</svg>
